<svg xmlns="http://www.w3.org/2000/svg" viewBox="0 0 1920 1080" preserveAspectRatio="xMidYMid slice">
  <defs>
    <linearGradient id="sky" x1="0" y1="0" x2="0" y2="1">
      <stop offset="0%" stop-color="#1a1035"/>
      <stop offset="45%" stop-color="#3d2858"/>
      <stop offset="72%" stop-color="#c45c3a"/>
      <stop offset="100%" stop-color="#ffb347"/>
    </linearGradient>
    <linearGradient id="haze" x1="0.5" y1="0" x2="0.5" y2="1">
      <stop offset="0%" stop-color="#ffd166" stop-opacity="0.15"/>
      <stop offset="100%" stop-color="#08050f" stop-opacity="0.55"/>
    </linearGradient>
  </defs>
  <rect width="1920" height="1080" fill="url(#sky)"/>
  <rect width="1920" height="1080" fill="url(#haze)"/>
  <g fill="#120a1e" opacity="0.92">
    <rect x="120" y="520" width="90" height="360" rx="4"/>
    <rect x="230" y="460" width="110" height="420" rx="4"/>
    <rect x="360" y="500" width="70" height="380" rx="4"/>
    <rect x="450" y="420" width="130" height="460" rx="4"/>
    <rect x="600" y="480" width="95" height="400" rx="4"/>
    <rect x="720" y="380" width="85" height="500" rx="4"/>
    <rect x="820" y="340" width="75" height="540" rx="4"/>
    <rect x="910" y="300" width="80" height="580" rx="4"/>
    <rect x="1000" y="340" width="75" height="540" rx="4"/>
    <rect x="1090" y="380" width="85" height="500" rx="4"/>
    <rect x="1200" y="440" width="120" height="440" rx="4"/>
    <rect x="1340" y="470" width="100" height="410" rx="4"/>
    <rect x="1460" y="430" width="115" height="450" rx="4"/>
    <rect x="1590" y="490" width="90" height="390" rx="4"/>
    <rect x="1700" y="520" width="100" height="360" rx="4"/>
  </g>
  <g fill="#6f38ff" opacity="0.35">
    <circle cx="960" cy="620" r="180"/>
    <circle cx="820" cy="680" r="90"/>
    <circle cx="1100" cy="690" r="70"/>
  </g>
</svg>
